<svg xmlns="http://www.w3.org/2000/svg" width="48" height="48"><defs><style>.cls-2{fill:#a4b0c0}.cls-4{fill:#d0d7df}.cls-6{fill:none;stroke:#474c54;stroke-linecap:round;stroke-linejoin:round;stroke-width:2px}</style></defs><g id="_29-Email-face" data-name="29-Email-face"><path d="M41 19 24 30 7 19V2a.979.979 0 0 1 1-1h32a.979.979 0 0 1 1 1z" style="fill:#f1f2f2"/><path class="cls-2" d="M7 13.91V19l-6-4 6-6v4.91z"/><path style="fill:#f6b445" d="m47 15-6 4V9l6 6z"/><path class="cls-4" d="M41 18.91 47 15v28a4.025 4.025 0 0 1-1.17 2.83L39 39 28 28l-.28-.43z"/><path class="cls-2" d="m39 39 6.83 6.83A4.025 4.025 0 0 1 43 47H5a4.025 4.025 0 0 1-2.83-1.17L9 39l11-11 .28-.43L24 30l3.72-2.43.28.43z"/><path class="cls-4" d="M20.28 27.57 20 28 9 39l-6.83 6.83A4.025 4.025 0 0 1 1 43V15z"/><circle cx="35" cy="13" r="12" style="fill:#fed049"/><path class="cls-6" d="M7 18.913 24 30M47 25v18a4 4 0 0 1-4 4H5a4 4 0 0 1-4-4V15M9 39l11-11M7 14V2a.979.979 0 0 1 1-1h16M6.906 9.094 1 15"/><circle class="cls-6" cx="35" cy="13" r="12"/><path class="cls-6" d="M29 10a2 2 0 0 1 4 0M37 10a2 2 0 0 1 4 0M41 14a6 6 0 0 1-12 0"/></g></svg>